<?xml version="1.0" encoding="iso-8859-1"?>
<!-- Generator: Adobe Illustrator 15.0.0, SVG Export Plug-In . SVG Version: 6.00 Build 0)  -->
<!DOCTYPE svg PUBLIC "-//W3C//DTD SVG 1.1//EN" "http://www.w3.org/Graphics/SVG/1.1/DTD/svg11.dtd">
<svg version="1.1" id="&#x30EC;&#x30A4;&#x30E4;&#x30FC;_1"
	 xmlns="http://www.w3.org/2000/svg" xmlns:xlink="http://www.w3.org/1999/xlink" x="0px" y="0px" width="141.732px"
	 height="141.732px" viewBox="0 0 141.732 141.732" style="enable-background:new 0 0 141.732 141.732;" xml:space="preserve">
<g>
	<path style="fill-rule:evenodd;clip-rule:evenodd;fill:#EFEFEF;" d="M83.38,114.772h0.023v-0.098L83.38,114.772z M86.783,107.068
		l-0.788-0.339l0.225,0.902l-0.563-0.563l0.563,3.099l-0.845-0.563c0,0,0.405,2,0.281,1.972c-0.124-0.027-0.563-0.845-0.563-0.845
		v1.972c0,0-0.459-0.383-0.555-0.518c0.003-0.034,0-0.049-0.009-0.046c-0.011,0.006-0.005,0.02,0.009,0.046
		c0,0.289-0.276,1.836-0.29,1.926c-0.018,0.1-0.282-0.563-0.282-0.563l-0.302,1.205c0.62-0.045,1.147-0.078,1.147-0.078
		l-1.127,0.563l3.099-0.281l-0.563,0.845l2.817-0.563l-1.127,0.846l2.817-0.846l-0.846,1.409l3.099-1.69l-0.281,1.127l2.254-1.69
		l-0.282,1.127l2.254-1.69c0,0-0.138,1.133,0,1.127c0.139-0.006,1.973-1.972,1.973-1.972v1.408l1.689-3.099l0.282,1.69l1.409-3.381
		l0.281,1.408l0.846-3.099l0.563,1.127l0.282-3.381c0,0,0.411,1.09,0.563,1.127s0-3.381,0-3.381l0.845,0.563
		c0,0-0.293-2.161-0.487-2.696c-0.084-0.064-0.124-0.109-0.075-0.121c0.022-0.006,0.048,0.04,0.075,0.121
		c0.229,0.164,0.77,0.443,0.77,0.443l-0.563-3.1l0.845,0.563l-0.563-3.099l0.846,0.845l-0.846-2.816c0,0,0.699,0.419,0.846,0.281
		s-1.408-2.254-1.408-2.254l1.126,0.282l-1.408-2.536l0.845,0.563l-1.127-1.972l1.127,0.281l-1.408-2.253l0.846,0.281l-1.409-2.535
		c-0.093-0.166,0.845,0.563,0.845,0.563l-1.126-2.535l0.845,0.846l-0.563-2.817l0.281,0.563l0.846-2.254v1.408l1.69-2.254
		l-0.282,1.409l1.972-2.254l-0.281,1.127l1.972-1.972v0.845l1.409-2.535l0.282,0.845l0.563-1.972l0.563,0.845l0.282-3.38
		c0,0-0.121-1.744-0.282-2.253c-1.169-1.885-2.626-2.77-4.099-3.085l0.014-0.062l-2.958-0.797l0.563,0.563h-2.535l0.845,0.282
		l-2.817,0.563l0.846,0.282l-2.535,0.563l0.845,0.281l-2.254,0.846h1.127l-2.817,1.408l1.127,0.282l-1.972,1.127
		c0,0,1.028-0.363,1.127-0.282c0.099,0.082-2.254,2.254-2.254,2.254l1.127-0.281l-1.69,2.253l0.846-0.563l-1.127,2.536l1.127-0.563
		l-1.409,2.254l1.127-0.564l-0.845,2.818l0.563-0.282l-0.563,2.817l0.845-0.563l-0.282,2.817l0.564-0.564v2.254l0.563-0.563
		l-0.563,2.535l0.845-0.563l-0.563,1.972l0.846-0.563L95.517,92.7l0.846-0.563l-0.846,1.973l0.846-0.282
		c0,0-0.976,2.341-0.846,2.254c0.129-0.088,1.127-0.846,1.127-0.846l-0.846,2.817l0.846-0.845l-0.846,2.816
		c0,0,0.925-0.938,0.846-0.845s-1.408,1.972-1.408,1.972l1.408-0.563l-1.69,1.972l1.127-0.563l-1.69,1.69
		c0,0,1.26-0.386,1.127-0.282c-0.133,0.104-1.973,1.409-1.973,1.409h1.127l-2.253,0.845l0.845,0.281l-2.254,0.282l1.127,0.563
		h-2.535c0,0,0.643,0.476,0.813,0.553c0.025,0.008,0.04,0.011,0.032,0.011c-0.007,0-0.018-0.003-0.032-0.011
		c-0.304-0.077-2.504-0.553-2.504-0.553l0.845,0.563l-2.254-0.845L86.783,107.068z"/>
	<path style="fill-rule:evenodd;clip-rule:evenodd;fill:#F3F3F3;" d="M37.742,63.979c-0.175,0.146-0.854,1.386-1.057,1.634
		c0.146-0.079,0.516-0.239,0.516-0.239l-0.845,1.69l0.563-0.281c0,0-1.231,2.07-1.127,1.972c0.104-0.099,0.563-0.281,0.563-0.281
		l-0.845,1.69l0.563-0.282l-0.845,1.972l0.563-0.281l-0.845,1.69l0.563-0.281c0,0-0.656,1.639-0.814,1.93
		c0.124-0.085,0.532-0.24,0.532-0.24l-0.845,1.69l0.563-0.281l-0.846,1.689l0.563-0.281l-0.563,1.69l0.282-0.282l-0.563,1.691
		l0.281-0.282l-0.845,2.254l0.563-0.563l-1.127,1.972c0,0,0.93-0.33,0.845-0.282c-0.084,0.049-1.126,1.409-1.126,1.409l0.845-0.282
		l-1.127,1.409c0,0,0.369,0.039,0.51,0.028c0.028-0.025,0.048-0.037,0.054-0.028c0.014,0.017-0.009,0.025-0.054,0.028
		c-0.226,0.203-1.073,1.381-1.073,1.381l0.563-0.282l-1.127,1.972l0.563-0.281l-1.127,1.689l0.563-0.281l-0.845,1.69
		c0,0,0.518-0.288,0.563-0.281c0.045,0.005-1.127,1.972-1.127,1.972l0.563-0.281l-0.563,2.253l0.282-0.563l-0.563,1.973l0.563-0.282
		l-0.845,1.69l0.563-0.281l-0.563,1.689l0.845-0.563l-1.127,2.535c0,0,0.502-0.266,0.563-0.281c0.062-0.018-0.563,1.972-0.563,1.972
		l0.563-0.563l-0.563,2.816l0.563-0.563l-0.563,2.254l0.563-0.563l-0.563,3.099l0.845-0.563c0,0-0.406,2-0.282,1.972
		c0.124-0.027,0.563-0.845,0.563-0.845v1.972c0,0,0.459-0.383,0.552-0.518c0-0.034,0.002-0.049,0.011-0.046
		c0.011,0.006,0.006,0.02-0.011,0.046c0.002,0.289,0.279,1.836,0.293,1.926c0.017,0.1,0.282-0.563,0.282-0.563l0.563,2.253v-1.126
		l0.563,2.535c0,0,0.408-0.487,0.541-0.722c-0.003-0.081,0.002-0.126,0.022-0.124c0.031,0.003,0.017,0.051-0.022,0.124
		c0.011,0.431,0.304,1.849,0.304,1.849l0.563-0.846l0.282,1.973l0.281-0.564c0,0,0.843,2.068,0.846,1.973
		c0.002-0.096,0.281-0.846,0.281-0.846l0.845,1.691v-1.127l0.705,0.703l1.268-1.268v0.846l1.127-1.127v0.846l1.69-1.127
		l-0.282,1.127l1.69-1.127l-0.563,1.127l1.409-1.127l0.282,1.408l1.096-1.366l-0.048,0.445l0.079-0.082v0.722l0.569-0.381
		l-0.423,2.423c0,0,0.67-0.741,0.826-0.888l0.002,0.057c-0.127,0.459-0.558,3-0.594,3.217l0.017,0.004l0.834-0.592l-0.11,0.479
		c-0.206,0.057-0.363,0.115-0.417,0.18c0.211-0.253,2.02-0.436,2.248-0.594c0.226-0.158,2.744-0.468,3.852-0.299
		c1.104,0.172,2.845,0.801,4.812,1.487c0.468,0.163,0.75,0.381,0.924,0.623c0.598,0.037,1.175,0.07,1.719,0.099
		c0.172-0.281,0.462-0.535,0.992-0.722c1.966-0.687,3.708-1.315,4.812-1.487c1.107-0.169,3.625,0.141,3.851,0.299
		c0.138,0.096,0.84,0.197,1.426,0.318l-0.087-0.383l0.893,0.507c0,0-0.504-2.656-0.637-3.136l0.003-0.057
		c0.155,0.146,0.825,0.888,0.825,0.888l-0.521-2.98l0.978,1.22l0.282-1.408l1.408,1.127l-0.563-1.127l1.69,1.127l-0.281-1.127
		l1.69,1.127v-0.846l1.126,1.127v-0.846l1.395,1.396l0.832-0.831v1.127l0.845-1.691c0,0,0.279,0.75,0.282,0.846
		c0.002,0.096,0.845-1.973,0.845-1.973l0.282,0.564l0.281-1.973l0.563,0.846c0,0,0.293-1.418,0.304-1.849
		c-0.039-0.073-0.053-0.121-0.021-0.124c0.02-0.002,0.025,0.043,0.021,0.124c0.133,0.234,0.541,0.722,0.541,0.722l0.564-2.535v1.126
		l0.563-2.253c0,0,0.265,0.662,0.282,0.563c0.014-0.09,0.29-1.637,0.29-1.926c-0.014-0.026-0.02-0.04-0.009-0.046
		c0.009-0.003,0.012,0.012,0.009,0.046c0.096,0.135,0.555,0.518,0.555,0.518v-1.972c0,0,0.439,0.817,0.563,0.845
		c0.124,0.028-0.281-1.972-0.281-1.972l0.845,0.563l-0.563-3.099l0.563,0.563l-0.563-2.254l0.563,0.563l-0.563-2.816l0.563,0.563
		c0,0-0.625-1.989-0.563-1.972c0.062,0.016,0.563,0.281,0.563,0.281l-1.127-2.535l0.846,0.563l-0.563-1.689l0.563,0.281l-0.846-1.69
		l0.563,0.282l-0.563-1.973l0.282,0.563l-0.563-2.253l0.563,0.281c0,0-1.173-1.967-1.127-1.972c0.045-0.007,0.563,0.281,0.563,0.281
		l-0.846-1.69l0.563,0.281l-1.126-1.689l0.563,0.281l-1.127-1.972l0.564,0.282c0,0-0.849-1.178-1.074-1.381
		c-0.045-0.003-0.067-0.012-0.053-0.028c0.005-0.009,0.025,0.003,0.053,0.028c0.142,0.011,0.51-0.028,0.51-0.028l-1.127-1.409
		l0.846,0.282c0,0-1.043-1.36-1.127-1.409c-0.084-0.048,0.846,0.282,0.846,0.282l-1.127-1.972l0.563,0.563l-0.845-2.254l0.282,0.282
		l-0.564-1.691l0.282,0.282l-0.563-1.69l0.563,0.281l-0.845-1.689l0.563,0.281l-0.845-1.69c0,0,0.409,0.155,0.532,0.24
		c-0.157-0.291-0.814-1.93-0.814-1.93l0.564,0.281l-0.846-1.69l0.563,0.281l-0.845-1.972l0.563,0.282l-0.845-1.69
		c0,0,0.459,0.183,0.563,0.281s-1.127-1.972-1.127-1.972l0.563,0.281l-0.845-1.69c0,0,0.369,0.161,0.516,0.239
		c-0.203-0.248-0.882-1.487-1.057-1.634c-0.037-0.014-0.048-0.02-0.022-0.014c0.005,0,0.014,0.005,0.022,0.014
		c0.163,0.059,0.822,0.268,0.822,0.268l-1.127-1.127h0.563l-1.126-1.127c0,0,0.647,0.071,0.563,0
		c-0.084-0.07-1.127-1.126-1.127-1.126l0.846,0.281l-1.127-1.127l0.846,0.282l-1.409-1.127l0.845,0.282l-0.845-0.845h0.282
		c0,0-0.823-1.034-0.846-1.127s0.563,0.282,0.563,0.282l-0.846-0.845c0,0,0.592,0.057,0.563,0c-0.027-0.057-1.127-1.127-1.127-1.127
		l0.563,0.282l-0.845-1.127l0.563,0.282l-1.127-1.127h0.563l-1.127-1.127h0.563l-0.846-0.845h0.563l-1.126-0.845h-0.507
		l-0.045-0.068c-0.18,0.496-0.341,0.966-0.341,0.966l-0.155-0.775l-0.699,1.536l-0.161-0.775l-1,1.347l0.135-0.58l-1.501,1.484
		l0.076-0.845l-1.527,1.501l0.135-0.586l0.485-1.017c-0.189,0.099-0.369,0.191-0.538,0.276c-0.38,0.569-0.879,1.403-0.879,1.403
		l-0.008-0.797l-1.02,1.363l-0.011-0.794l-1.276,1.102l0.251-0.536l-1.781,1.116l0.243-0.797l-1.77,1.11l0.245-0.532l0.544-0.71
		l-1.482,0.929l0.242-0.797l-1.288,0.809l0.135,0.302l-0.307-0.194l-0.307,0.194l0.135-0.302l-1.287-0.809l0.242,0.797l-1.482-0.929
		l0.543,0.71l0.245,0.532l-1.769-1.11l0.242,0.797l-1.78-1.116l0.25,0.536l-1.276-1.102l-0.011,0.794l-1.02-1.363l-0.008,0.797
		c0,0-0.457-0.761-0.826-1.324c-0.174-0.087-0.36-0.183-0.558-0.284l0.451,0.946l0.135,0.586l-1.527-1.501l0.076,0.845l-1.502-1.484
		l0.136,0.58l-1-1.347l-0.161,0.775l-0.699-1.536l-0.155,0.775c0,0-0.208-0.614-0.42-1.18h-0.197l-0.121,0.282H43.68l-1.127,0.845
		h0.563l-0.845,0.845h0.563l-1.127,1.127h0.563l-1.127,1.127l0.563-0.282l-0.845,1.127l0.563-0.282c0,0-1.099,1.07-1.127,1.127
		s0.563,0,0.563,0l-0.845,0.845c0,0,0.586-0.375,0.563-0.282c-0.022,0.093-0.845,1.127-0.845,1.127h0.282l-0.845,0.845l0.845-0.282
		l-1.409,1.127l0.845-0.282l-1.127,1.127l0.845-0.281c0,0-1.042,1.056-1.127,1.126c-0.084,0.071,0.563,0,0.563,0l-1.127,1.127h0.563
		l-1.127,1.127C36.919,64.247,37.578,64.038,37.742,63.979c0.008-0.009,0.017-0.014,0.022-0.014
		C37.79,63.959,37.778,63.965,37.742,63.979z M36.637,65.655c0.008,0,0.025-0.014,0.048-0.042
		C36.637,65.638,36.612,65.655,36.637,65.655z M34.665,74.952c0.003,0.006,0.014-0.009,0.031-0.042
		C34.671,74.927,34.66,74.943,34.665,74.952z M78.331,65.655c0.025,0,0-0.017-0.047-0.042
		C78.307,65.641,78.323,65.655,78.331,65.655z M80.304,74.952c0.006-0.009-0.006-0.025-0.031-0.042
		C80.289,74.943,80.301,74.958,80.304,74.952z"/>
	<path style="fill-rule:evenodd;clip-rule:evenodd;fill:#EBEBEB;" d="M37.699,116.723c0.223,0.647,0.462,1.313,0.572,1.535
		c0.05,0.045,0.073,0.076,0.056,0.079c-0.011,0.002-0.028-0.025-0.056-0.079c-0.127-0.124-0.442-0.366-0.735-0.589l-0.096,0.481
		l0.887,1.595l-1.149-0.33c-0.144,0.674-0.259,1.176-0.259,1.176c0.042-0.009,0.141,0.09,0.287,0.275l0.84-0.84v0.846l1.127-1.127
		v0.846l1.69-1.127l-0.282,1.127l1.69-1.127l-0.563,1.127l1.409-1.127l0.282,1.408l1.096-1.366l0.293-2.804
		c0,0-0.836,0.789-0.842,0.59c-0.006-0.201,0.341-3.224,0.341-3.224l-0.561,0.583l0.059-2.907l-0.837,0.581l0.338-2.889
		l-0.834,0.575l0.082-3.437l-0.566,0.855l0.082-3.411l-0.828,0.566l0.079-3.102l-0.372,0.493c-0.079,0.341-0.177,0.764-0.284,1.223
		l0.22,2.178l-0.609-0.457l-0.186,0.832l0.513,1.879L39.792,107l-0.152,0.671l-0.051,0.223l0.428,1.429l-0.631-0.505l-0.175,0.819
		l0.806,1.938l-1.009-1.008l-0.141,0.631l0.304,1.223c0,0-0.237-0.215-0.496-0.429l-0.25,1.006c0.225,0.817,0.465,1.677,0.465,1.677
		s-0.383-0.257-0.75-0.524c-0.048,0.2-0.093,0.397-0.138,0.586c0.27,0.738,0.552,1.555,0.605,1.628
		c0.057,0.079-0.395-0.287-0.8-0.622c-0.025,0.163-0.042,0.304-0.045,0.419C37.759,116.294,37.733,116.488,37.699,116.723z
		 M45.252,119.105l-0.727,0.764v0.722l0.569-0.381l0.172-0.983L45.252,119.105z M77.793,117.824
		c-0.225,0.171-0.433,0.338-0.532,0.434c-0.027,0.054-0.045,0.081-0.056,0.079c-0.017-0.003,0.005-0.034,0.056-0.079
		c0.082-0.169,0.24-0.592,0.409-1.067c-0.051-0.367-0.112-0.804-0.172-1.263c-0.33,0.271-0.62,0.502-0.575,0.437
		c0.043-0.062,0.248-0.639,0.471-1.256l-0.107-0.885c-0.329,0.239-0.645,0.451-0.645,0.451s0.268-0.964,0.502-1.817
		c-0.034-0.273-0.088-0.611-0.147-0.983c-0.304,0.248-0.636,0.547-0.636,0.547l0.433-1.738l-0.056-0.33l-1.223,1.223l1.017-2.445
		c-0.03-0.203-0.059-0.392-0.081-0.558l-0.936,0.75l0.69-2.3l-0.065-0.344l-1.188,0.953l0.777-2.86l-0.036-0.16l-1.023,0.767
		l0.282-2.817l0.166,0.093l-0.054-0.158l0.012,0.113l-0.842-1.124l0.078,3.102l-0.828-0.566l0.081,3.411l-0.565-0.855l0.082,3.437
		l-0.834-0.575l0.338,2.889l-0.837-0.581l0.06,2.907l-0.561-0.583c0,0,0.346,3.022,0.34,3.224c-0.005,0.199-0.842-0.59-0.842-0.59
		l0.341,3.249l-0.806-0.846l-0.014,0.121l0.073,0.426l0.978,1.22l0.282-1.408l1.408,1.127l-0.563-1.127l1.69,1.127l-0.281-1.127
		l1.69,1.127v-0.846l1.126,1.127v-0.846l1.395,1.396l0.068-0.07c0.135-0.566,0.099-1.231,0.003-1.874l-0.93,0.268l0.729-1.313
		C77.887,118.213,77.836,118.007,77.793,117.824z M43.706,50.685c0.166,0.265,0.4,0.617,0.702,1.025
		c-0.079-0.22-0.175-0.49-0.271-0.747C43.984,50.868,43.841,50.774,43.706,50.685z M44.613,51.983
		c1.907,2.485,6.102,6.629,12.849,6.629c-0.318-0.164,5.986-0.423,10.937-5.167l0.118-0.507l-1.501,1.484l0.076-0.845l-1.527,1.501
		l0.135-0.586l0.485-1.017c-0.189,0.099-0.369,0.191-0.538,0.276c-0.38,0.569-0.879,1.403-0.879,1.403l-0.008-0.797l-1.02,1.363
		l-0.011-0.794l-1.276,1.102l0.251-0.536l-1.781,1.116l0.243-0.797l-1.77,1.11l0.245-0.532l0.544-0.71l-1.482,0.929l0.242-0.797
		l-1.288,0.809l0.135,0.302l-0.307-0.194l-0.307,0.194l0.135-0.302l-1.287-0.809l0.242,0.797l-1.482-0.929l0.543,0.71l0.245,0.532
		l-1.769-1.11l0.242,0.797l-1.78-1.116l0.25,0.536l-1.276-1.102l-0.011,0.794l-1.02-1.363l-0.008,0.797c0,0-0.457-0.761-0.826-1.324
		c-0.174-0.087-0.36-0.183-0.558-0.284l0.451,0.946l0.135,0.586l-1.527-1.501l0.076,0.845l-1.502-1.484l0.136,0.58l-1-1.347
		l-0.161,0.775l-0.699-1.536L44.613,51.983z M68.528,53.321c0.304-0.298,0.606-0.614,0.899-0.949l-0.045-0.2L68.528,53.321z"/>
	<path style="fill-rule:evenodd;clip-rule:evenodd;fill:#F3F3F3;" d="M48.96,17.828c-1.823-2.569-4.632-6.558-5.623-7.68
		c-1.392-1.575-3.899-1.211-4.564-0.578c-0.665,0.634-0.048,4.181,0,5.775c0.051,1.595-0.048,5.119,0,7.505
		c0.045,2.079-0.256,4.104-0.332,4.595c-0.499,0.369-1.116,0.789-1.116,0.789h0.741l-1.234,1.051h0.741l-0.989,1.318l0.496-0.265
		l-0.989,1.842l0.716-0.253l-0.017,0.07l-0.944,1.764l0.49-0.262l-1.071,1.921l0.685-0.301l-0.722,1.476l0.682-0.304l-0.389,1.62
		l0.353-0.445l-0.181,2.104l0.578-0.546l-0.18,2.107l0.352-0.448l0.253-0.547c0.042,0.113,0.09,0.223,0.141,0.335
		c-0.135,0.657-0.358,1.53-0.358,1.53l0.555-0.535l-0.251,1.688l0.555-0.535l0.104,1.707l0.2-0.558l0.442,2.107l0.386-0.735
		l0.442,2.104l0.2-0.558l0.194-1.51c0.11,0.603,0.237,2.031,0.237,2.031l0.341-0.71l0.324,1.693l0.341-0.71l0.659,1.583l0.006-0.6
		l1.107,1.837l0.096-0.671c0.09,0.096,0.192,0.194,0.302,0.296l0.828,1.375l0.003-0.603l-0.028-0.141
		c0.183,0.13,0.386,0.265,0.614,0.406c0.217,0.578,0.437,1.223,0.437,1.223l0.155-0.775l0.699,1.536l0.161-0.775l1,1.347
		l-0.136-0.58l1.502,1.484l-0.076-0.845l1.527,1.501l-0.135-0.586l-0.451-0.946c0.197,0.102,0.383,0.197,0.558,0.284
		c0.369,0.563,0.826,1.324,0.826,1.324l0.008-0.797l1.02,1.363l0.011-0.794l1.276,1.102l-0.25-0.536l1.78,1.116l-0.242-0.797
		l1.769,1.11l-0.245-0.532l-0.543-0.71l1.482,0.929l-0.242-0.797l1.287,0.809l-0.135,0.302l0.307-0.194l0.307,0.194l-0.135-0.302
		l1.288-0.809l-0.242,0.797l1.482-0.929l-0.544,0.71l-0.245,0.532l1.77-1.11l-0.243,0.797l1.781-1.116l-0.251,0.536l1.276-1.102
		l0.011,0.794l1.02-1.363l0.008,0.797c0,0,0.499-0.834,0.879-1.403c0.169-0.084,0.349-0.177,0.538-0.276l-0.485,1.017l-0.135,0.586
		l1.527-1.501l-0.076,0.845l1.501-1.484l-0.135,0.58l1-1.347l0.161,0.775l0.699-1.536l0.155,0.775c0,0,0.245-0.712,0.471-1.31
		c0.223-0.141,0.422-0.276,0.6-0.403l-0.048,0.226l0.003,0.603l0.975-1.617c0.051-0.051,0.1-0.102,0.144-0.152l0.107,0.77
		l1.107-1.837l0.005,0.6l0.659-1.583l0.342,0.71l0.323-1.693l0.342,0.71c0,0,0.127-1.428,0.236-2.031l0.194,1.51l0.2,0.558
		l0.442-2.104l0.386,0.735l0.442-2.107l0.2,0.558l0.104-1.707l0.555,0.535l-0.25-1.688l0.555,0.535c0,0-0.262-1.028-0.392-1.693
		c0.042-0.099,0.082-0.197,0.118-0.296l0.311,0.671l0.352,0.448l-0.181-2.107l0.578,0.546l-0.18-2.104l0.352,0.445l-0.389-1.62
		l0.682,0.304l-0.722-1.476l0.686,0.301c0,0-1.378-2.104-1.39-2.203l0.809,0.544l-0.985-1.842l0.74,0.262l-0.989-1.842l0.497,0.265
		l-0.989-1.318h0.741l-1.234-1.051h0.741c0,0-0.46-0.437-1.2-1.127c-0.102-0.727-0.311-2.445-0.271-4.257
		c0.048-2.386-0.051-5.91,0-7.505c0.048-1.595,0.665-5.142,0-5.775s-3.173-0.997-4.563,0.578c-0.998,1.127-3.826,5.147-5.652,7.713
		c-0.11-0.064-0.188-0.099-0.236-0.099c-0.82,0-1.848,0.327-2.462,0.327h-1.848c-0.152,0-2.482-0.181-3.651-0.273v-0.054
		l-0.33,0.025l-0.33-0.025v0.054c-1.169,0.093-3.496,0.273-3.651,0.273h-1.845c-0.617,0-1.643-0.327-2.465-0.327
		C49.101,17.763,49.042,17.785,48.96,17.828z M39.331,45.002l0.059,0.107l-0.064-0.067L39.331,45.002z M75.343,45.346l0.275-0.499
		l0.025,0.195C75.573,45.115,75.473,45.219,75.343,45.346z"/>
	<path style="fill-rule:evenodd;clip-rule:evenodd;fill:#DDDDDD;" d="M47.625,44.808c0,0,0.064,0.687,0.09,0.662
		c3.699,6.739,9.324,3.184,9.338,3.195c0.2-0.222,0.361-0.287,0.454-0.555c0.093,0.268,0.209,0.333,0.409,0.555
		c0.014-0.011,5.691,3.555,9.39-3.183c0.022,0.025,0.04-0.673,0.04-0.673s-3.206,6.837-9.119,3.406c0,0-0.025-0.02-0.02-0.034
		c-0.38-0.262-0.499-1.025-0.499-1.025l-0.057-2.316h-0.332l-0.037,2.307c-0.084,0.611-0.527,1.065-0.538,1.074
		C50.718,51.769,47.625,44.808,47.625,44.808z"/>
	<path style="fill-rule:evenodd;clip-rule:evenodd;fill:#E8D0D0;" d="M55.321,41.441c0,0-2.311,0.862-0.566,2.513
		c0.172,0.254,1.586,1.97,2.721,1.978c0,0.009,1.409,0.085,3.321-2.037c-0.107,0.02,1.22-0.676-0.69-2.468
		C59.975,41.438,55.321,41.441,55.321,41.441z"/>
	<path style="fill-rule:evenodd;clip-rule:evenodd;fill:#C4ACAC;" d="M55.022,44.259c0,0,0.408-0.471,0.969-0.136
		c-0.064-0.053,0.752,0.448,0.521,0.868c-0.009-0.006,0.093,0.203-0.259,0.287C56.228,45.321,55.949,45.315,55.022,44.259z"/>
	<path style="fill-rule:evenodd;clip-rule:evenodd;fill:#C4ACAC;" d="M60.229,44.259c0,0-0.409-0.471-0.969-0.136
		c0.065-0.053-0.752,0.448-0.521,0.868c0.008-0.006-0.093,0.203,0.259,0.287C59.022,45.321,59.302,45.315,60.229,44.259z"/>
	<path style="fill-rule:evenodd;clip-rule:evenodd;fill:#4C4C4C;" d="M69.599,34.026c0,1.916-1.637,3.468-3.657,3.468
		c-1.95,0-3.544-1.445-3.654-3.268c0.893-1.524,2.589-1.898,2.555-1.845c1.006-0.705,2.158-1.147,3.397-1.054
		C69.069,31.964,69.599,32.937,69.599,34.026z"/>
	<path style="fill-rule:evenodd;clip-rule:evenodd;fill:#C5CDAE;" d="M62.862,33.404c0.797-0.966,1.64-1.431,1.614-1.386
		c0.871-0.611,2.125-0.749,3.249-0.715c0.803,0.561,1.324,1.49,1.324,2.542c0,1.712-1.392,3.102-3.107,3.102
		c-1.719,0-3.11-1.389-3.11-3.102C62.832,33.694,62.843,33.548,62.862,33.404z"/>
	<ellipse style="fill-rule:evenodd;clip-rule:evenodd;fill:#4C4C4C;" cx="65.94" cy="34.026" rx="0.914" ry="2.009"/>
	<circle style="fill-rule:evenodd;clip-rule:evenodd;fill:#F3F3F3;" cx="64.95" cy="33.117" r="0.704"/>
	<path style="fill-rule:evenodd;clip-rule:evenodd;fill:#4C4C4C;" d="M45.294,34.026c0,1.916,1.64,3.468,3.66,3.468
		c1.949,0,3.541-1.445,3.651-3.268c-0.89-1.524-2.586-1.898-2.555-1.845c-1.003-0.705-2.158-1.147-3.395-1.054
		C45.827,31.964,45.294,32.937,45.294,34.026z"/>
	<path style="fill-rule:evenodd;clip-rule:evenodd;fill:#C5CDAE;" d="M52.03,33.404c-0.794-0.966-1.64-1.431-1.614-1.386
		c-0.868-0.611-2.124-0.749-3.248-0.715c-0.8,0.561-1.324,1.49-1.324,2.542c0,1.712,1.392,3.102,3.11,3.102
		c1.716,0,3.107-1.389,3.107-3.102C52.062,33.694,52.05,33.548,52.03,33.404z"/>
	<ellipse style="fill-rule:evenodd;clip-rule:evenodd;fill:#4C4C4C;" cx="48.952" cy="34.026" rx="0.914" ry="2.009"/>
	<circle style="fill-rule:evenodd;clip-rule:evenodd;fill:#F3F3F3;" cx="47.765" cy="33.117" r="0.704"/>
	<path style="fill-rule:evenodd;clip-rule:evenodd;fill:#EBEBEB;" d="M61.958,96.515c-0.157,0.042-0.313,0.079-0.47,0.115
		c-2.465,0.569-4.736,0.49-6.637,0.214c-0.423-0.059-0.826-0.129-1.211-0.205l0.648,1.217l-1.071-0.555l1.33,2.783l-1.344-0.84
		l1.601,3.364l-0.809-0.563l1.341,3.392l-1.082-0.851l1.346,3.13l-0.817-0.572l1.082,2.868l-0.817-0.575l1.084,3.178l-1.096-0.579
		l1.367,3.202l-1.102-0.875l1.372,2.93l-1.104-0.59l1.102,2.657l-1.107-0.592l1.104,2.671l-1.113-0.595l1.11,2.986l-1.116-0.6
		l1.11,2.707l-0.837-0.603l0.411,0.915c1.122,0.076,2.192,0.138,3.142,0.183l0.335-1.098l-0.837,0.603l1.11-2.707l-1.116,0.6
		l1.11-2.986l-1.113,0.595l1.104-2.671l-1.107,0.592l1.102-2.657l-1.104,0.59l1.372-2.93l-1.102,0.875l1.366-3.202l-1.096,0.579
		l1.084-3.178l-0.817,0.575l1.082-2.868l-0.817,0.572l1.347-3.13l-1.082,0.851l1.341-3.392l-0.808,0.563l1.6-3.364l-1.344,0.84
		l1.33-2.783l-1.07,0.555L61.958,96.515z M62.609,57.15l0.211-0.084l0.017-0.144L62.609,57.15z M51.85,57.204
		c-0.022,0.008-0.008,0.022,0.034,0.042C51.87,57.215,51.858,57.201,51.85,57.204z M52.695,57.485c0,0-0.637-0.158-0.812-0.239
		c0.028,0.064,0.065,0.197,0.102,0.372c1.595,0.608,3.415,0.995,5.477,0.995c-0.186-0.096,1.874-0.223,4.604-1.248l0.301-1.662
		l-1.445,0.907l0.243-0.797l-1.77,1.11l0.245-0.532l0.544-0.71l-1.482,0.929l0.242-0.797l-1.288,0.809l0.135,0.302l-0.307-0.194
		l-0.307,0.194l0.135-0.302l-1.287-0.809l0.242,0.797l-1.482-0.929l0.543,0.71l0.245,0.532l-1.769-1.11l0.242,0.797l-1.78-1.116
		l0.25,0.536l-0.318-0.273L52.695,57.485z"/>
	<path style="fill-rule:evenodd;clip-rule:evenodd;fill:#F3F3F3;" d="M45.5,121.802l-0.002-0.057
		c-0.155,0.146-0.826,0.888-0.826,0.888l0.423-2.423l-0.569,0.381v-0.722l-0.079,0.082l0.048-0.445l-1.096,1.366l-0.282-1.408
		l-1.409,1.127l0.563-1.127l-1.69,1.127l0.282-1.127l-1.69,1.127v-0.846l-1.127,1.127v-0.846l-1.448,1.449
		c-0.321,0.991-0.442,2.268,0.392,2.797c1.412,0.898,3.384,1.578,4.026,1.764c0.645,0.186,1.606,0.217,2.169,0.293
		c0.126,0.017,0.346,0.045,0.625,0.076c-0.507,0.617-1.51,3.215-0.183,4.037c1.462,0.91,3.504,1.598,4.172,1.786
		c0.668,0.186,1.662,0.22,2.246,0.296c0.583,0.078,3.034,0.36,4.172,0c1.138-0.358,2.037-0.705,2.566-1.189
		c0.529-0.484,0.755-3.242,0.642-3.865c-0.113-0.625-0.113-1.377-1.285-1.786c-1.966-0.687-3.707-1.315-4.812-1.487
		c-1.107-0.169-3.626,0.141-3.852,0.299c-0.228,0.158-2.037,0.341-2.248,0.594c0.054-0.064,0.211-0.123,0.417-0.18l0.11-0.479
		l-0.851,0.603C44.906,125.033,45.368,122.281,45.5,121.802z M70.035,121.745l-0.003,0.057c0.132,0.479,0.637,3.136,0.637,3.136
		l-0.893-0.507l0.087,0.383c-0.586-0.121-1.288-0.223-1.426-0.318c-0.225-0.158-2.744-0.468-3.851-0.299
		c-1.104,0.172-2.846,0.801-4.812,1.487c-1.172,0.409-1.172,1.161-1.285,1.786c-0.113,0.623,0.113,3.381,0.643,3.865
		c0.529,0.484,1.428,0.831,2.566,1.189c1.138,0.36,3.589,0.078,4.172,0c0.583-0.076,1.581-0.11,2.246-0.296
		c0.667-0.188,2.71-0.876,4.172-1.786c1.465-0.907,0.093-3.973-0.321-4.164c0.543-0.051,1.214-0.102,1.704-0.242
		c0.643-0.186,2.614-0.865,4.025-1.764c0.846-0.538,0.708-1.843,0.375-2.84l-1.403-1.406v0.846l-1.126-1.127v0.846l-1.69-1.127
		l0.281,1.127l-1.69-1.127l0.563,1.127l-1.408-1.127l-0.282,1.408l-0.978-1.22l0.521,2.98
		C70.86,122.633,70.19,121.892,70.035,121.745z"/>
	<path style="fill-rule:evenodd;clip-rule:evenodd;fill:#DDDDDD;" d="M42.539,126.265c0.161,0.014,0.313,0.028,0.451,0.042
		c-0.073-0.933-0.087-4.829-0.034-5.122c-0.487,1.474-0.476,5.043-0.476,5.043L42.539,126.265z M38.13,124.836
		c0,0,0.448,0.239,0.543,0.278c-0.005-0.431,0.11-3.597,0-3.617C37.953,122.422,38.13,124.836,38.13,124.836z M72.147,126.265
		l0.06-0.037c0,0,0.011-3.569-0.477-5.043c0.054,0.293,0.04,4.189-0.033,5.122C71.835,126.293,71.987,126.278,72.147,126.265z
		 M76.558,124.836c0,0,0.177-2.414-0.544-3.339c-0.11,0.021,0.005,3.187,0,3.617C76.108,125.075,76.558,124.836,76.558,124.836z
		 M49.376,132.456c0.167,0.018,0.324,0.031,0.468,0.046c-0.076-0.944-0.093-4.888-0.034-5.187c-0.507,1.492-0.496,5.107-0.496,5.107
		L49.376,132.456z M44.807,131.014c0,0,0.465,0.239,0.563,0.282c-0.005-0.437,0.113-3.646,0-3.662
		C44.621,128.568,44.807,131.014,44.807,131.014z M54.67,132.378c0.2-0.068,0.395-0.136,0.578-0.206
		c0.056-1.431-0.481-4.006-0.58-3.975C54.718,129.262,54.676,132,54.67,132.378z M66.539,132.456l0.062-0.033
		c0,0,0.011-3.615-0.493-5.107c0.056,0.299,0.04,4.242-0.037,5.187C66.215,132.487,66.373,132.474,66.539,132.456z M71.108,131.014
		c0,0,0.186-2.445-0.563-3.38c-0.113,0.017,0.006,3.226,0,3.662C70.644,131.253,71.108,131.014,71.108,131.014z M61.249,132.378
		c-0.009-0.378-0.051-3.116,0-4.181c-0.099-0.031-0.637,2.544-0.581,3.975C60.851,132.242,61.045,132.31,61.249,132.378z"/>
	<path style="fill-rule:evenodd;clip-rule:evenodd;fill:#E8D0D0;" d="M48.309,18.338c-1.414-2.167-4.152-6.198-5.124-7.297
		c-1.24-1.403-3.187-1.079-3.778-0.516c-0.595,0.563-0.045,3.722,0,5.139c0.042,1.42-0.045,4.555,0,6.682
		c0.017,0.868,0.028,1.874,0.031,2.761c0.755-0.688,2.082-1.837,2.646-2.285c0.817-0.647,2.685-2.589,3.017-2.814
		C45.393,19.808,46.421,18.729,48.309,18.338z M75.506,25.11c0.006-0.888,0.017-1.896,0.034-2.764c0.045-2.127-0.043-5.262,0-6.682
		c0.045-1.417,0.594-4.575,0-5.139c-0.592-0.563-2.539-0.887-3.778,0.516c-0.972,1.099-3.71,5.13-5.124,7.297
		c1.885,0.391,2.913,1.47,3.206,1.67c0.332,0.225,2.2,2.167,3.017,2.814C73.425,23.271,74.754,24.423,75.506,25.11z"/>
	<path style="fill-rule:evenodd;clip-rule:evenodd;fill:#C4C4C4;" d="M51.357,44.49c0,0-10.882-0.907-16.066,4.062
		c0.682-0.558,6.77-4.725,16.072-3.679C51.371,44.906,51.816,44.673,51.357,44.49z M35.229,48.611l0.062-0.06
		C35.246,48.589,35.226,48.608,35.229,48.611z M50.287,45.749c0,0-10.762,0.529-14.661,6.189c0.541-0.656,5.499-5.623,14.779-5.812
		C50.422,46.16,50.785,45.87,50.287,45.749z M35.578,52.012l0.048-0.074C35.589,51.986,35.572,52.012,35.578,52.012z M52.692,46.797
		c0,0-10.683,1.285-13.948,7.231c0.467-0.698,4.865-6.026,14.108-6.859C52.873,47.2,53.205,46.881,52.692,46.797z M38.705,54.104
		l0.04-0.076C38.714,54.076,38.7,54.104,38.705,54.104z M52.334,43.292c0,0-10.618-2.003-16.68,2.386
		c0.786-0.491,7.572-3.989,16.641-1.998C52.298,43.718,52.78,43.526,52.334,43.292z M35.578,45.735l0.076-0.056
		C35.598,45.712,35.572,45.732,35.578,45.735z M63.606,44.873c9.303-1.045,15.391,3.122,16.069,3.679
		c-5.181-4.969-16.064-4.062-16.064-4.062C63.153,44.673,63.598,44.906,63.606,44.873z M79.74,48.611
		c0.003-0.003-0.017-0.022-0.064-0.06L79.74,48.611z M64.564,46.126c9.28,0.188,14.238,5.155,14.779,5.812
		c-3.898-5.66-14.66-6.189-14.66-6.189C64.184,45.87,64.547,46.16,64.564,46.126z M79.391,52.012c0.006,0-0.011-0.026-0.048-0.074
		L79.391,52.012z M62.116,47.169c9.243,0.833,13.641,6.161,14.105,6.859c-3.263-5.947-13.945-7.231-13.945-7.231
		C61.764,46.881,62.096,47.2,62.116,47.169z M76.264,54.104c0.006,0-0.009-0.028-0.042-0.076L76.264,54.104z M62.674,43.681
		c9.068-1.992,15.854,1.507,16.641,1.998c-6.063-4.39-16.68-2.386-16.68-2.386C62.189,43.526,62.671,43.718,62.674,43.681z
		 M79.391,45.735c0.006-0.003-0.02-0.022-0.076-0.056L79.391,45.735z"/>
</g>
</svg>
