<?xml version="1.0" encoding="UTF-8" ?>
<svg version="1.1" width="510" height="870" xmlns="http://www.w3.org/2000/svg">
<rect x="30" y="0" width="30" height="30" fill="#000000" />
<rect x="60" y="0" width="30" height="30" fill="#000000" />
<rect x="420" y="0" width="30" height="30" fill="#000000" />
<rect x="450" y="0" width="30" height="30" fill="#000000" />
<rect x="0" y="30" width="30" height="30" fill="#000000" />
<rect x="30" y="30" width="30" height="30" fill="#8D6E63" />
<rect x="60" y="30" width="30" height="30" fill="#8D6E63" />
<rect x="90" y="30" width="30" height="30" fill="#000000" />
<rect x="120" y="30" width="30" height="30" fill="#000000" />
<rect x="150" y="30" width="30" height="30" fill="#000000" />
<rect x="180" y="30" width="30" height="30" fill="#000000" />
<rect x="210" y="30" width="30" height="30" fill="#000000" />
<rect x="240" y="30" width="30" height="30" fill="#000000" />
<rect x="270" y="30" width="30" height="30" fill="#000000" />
<rect x="300" y="30" width="30" height="30" fill="#000000" />
<rect x="330" y="30" width="30" height="30" fill="#000000" />
<rect x="360" y="30" width="30" height="30" fill="#000000" />
<rect x="390" y="30" width="30" height="30" fill="#000000" />
<rect x="420" y="30" width="30" height="30" fill="#8D6E63" />
<rect x="450" y="30" width="30" height="30" fill="#8D6E63" />
<rect x="480" y="30" width="30" height="30" fill="#000000" />
<rect x="0" y="60" width="30" height="30" fill="#000000" />
<rect x="30" y="60" width="30" height="30" fill="#795548" />
<rect x="60" y="60" width="30" height="30" fill="#795548" />
<rect x="90" y="60" width="30" height="30" fill="#000000" />
<rect x="120" y="60" width="30" height="30" fill="#8D6E63" />
<rect x="150" y="60" width="30" height="30" fill="#8D6E63" />
<rect x="180" y="60" width="30" height="30" fill="#8D6E63" />
<rect x="210" y="60" width="30" height="30" fill="#8D6E63" />
<rect x="240" y="60" width="30" height="30" fill="#8D6E63" />
<rect x="270" y="60" width="30" height="30" fill="#8D6E63" />
<rect x="300" y="60" width="30" height="30" fill="#8D6E63" />
<rect x="330" y="60" width="30" height="30" fill="#8D6E63" />
<rect x="360" y="60" width="30" height="30" fill="#8D6E63" />
<rect x="390" y="60" width="30" height="30" fill="#000000" />
<rect x="420" y="60" width="30" height="30" fill="#795548" />
<rect x="450" y="60" width="30" height="30" fill="#795548" />
<rect x="480" y="60" width="30" height="30" fill="#000000" />
<rect x="0" y="90" width="30" height="30" fill="#000000" />
<rect x="30" y="90" width="30" height="30" fill="#795548" />
<rect x="60" y="90" width="30" height="30" fill="#795548" />
<rect x="90" y="90" width="30" height="30" fill="#000000" />
<rect x="120" y="90" width="30" height="30" fill="#795548" />
<rect x="150" y="90" width="30" height="30" fill="#795548" />
<rect x="180" y="90" width="30" height="30" fill="#795548" />
<rect x="210" y="90" width="30" height="30" fill="#795548" />
<rect x="240" y="90" width="30" height="30" fill="#795548" />
<rect x="270" y="90" width="30" height="30" fill="#795548" />
<rect x="300" y="90" width="30" height="30" fill="#795548" />
<rect x="330" y="90" width="30" height="30" fill="#795548" />
<rect x="360" y="90" width="30" height="30" fill="#795548" />
<rect x="390" y="90" width="30" height="30" fill="#000000" />
<rect x="420" y="90" width="30" height="30" fill="#795548" />
<rect x="450" y="90" width="30" height="30" fill="#795548" />
<rect x="480" y="90" width="30" height="30" fill="#000000" />
<rect x="0" y="120" width="30" height="30" fill="#000000" />
<rect x="30" y="120" width="30" height="30" fill="#795548" />
<rect x="60" y="120" width="30" height="30" fill="#795548" />
<rect x="90" y="120" width="30" height="30" fill="#000000" />
<rect x="120" y="120" width="30" height="30" fill="#795548" />
<rect x="150" y="120" width="30" height="30" fill="#000000" />
<rect x="180" y="120" width="30" height="30" fill="#000000" />
<rect x="210" y="120" width="30" height="30" fill="#000000" />
<rect x="240" y="120" width="30" height="30" fill="#000000" />
<rect x="270" y="120" width="30" height="30" fill="#000000" />
<rect x="300" y="120" width="30" height="30" fill="#000000" />
<rect x="330" y="120" width="30" height="30" fill="#000000" />
<rect x="360" y="120" width="30" height="30" fill="#795548" />
<rect x="390" y="120" width="30" height="30" fill="#000000" />
<rect x="420" y="120" width="30" height="30" fill="#795548" />
<rect x="450" y="120" width="30" height="30" fill="#795548" />
<rect x="480" y="120" width="30" height="30" fill="#000000" />
<rect x="0" y="150" width="30" height="30" fill="#000000" />
<rect x="30" y="150" width="30" height="30" fill="#795548" />
<rect x="60" y="150" width="30" height="30" fill="#000000" />
<rect x="90" y="150" width="30" height="30" fill="#000000" />
<rect x="120" y="150" width="30" height="30" fill="#000000" />
<rect x="150" y="150" width="30" height="30" fill="#EEEEEE" />
<rect x="180" y="150" width="30" height="30" fill="#FFFFFF" />
<rect x="210" y="150" width="30" height="30" fill="#FFFFFF" />
<rect x="240" y="150" width="30" height="30" fill="#FFFFFF" />
<rect x="270" y="150" width="30" height="30" fill="#FFFFFF" />
<rect x="300" y="150" width="30" height="30" fill="#FFFFFF" />
<rect x="330" y="150" width="30" height="30" fill="#EEEEEE" />
<rect x="360" y="150" width="30" height="30" fill="#000000" />
<rect x="390" y="150" width="30" height="30" fill="#000000" />
<rect x="420" y="150" width="30" height="30" fill="#000000" />
<rect x="450" y="150" width="30" height="30" fill="#795548" />
<rect x="480" y="150" width="30" height="30" fill="#000000" />
<rect x="0" y="180" width="30" height="30" fill="#000000" />
<rect x="30" y="180" width="30" height="30" fill="#000000" />
<rect x="60" y="180" width="30" height="30" fill="#FFFFFF" />
<rect x="90" y="180" width="30" height="30" fill="#FFFFFF" />
<rect x="120" y="180" width="30" height="30" fill="#000000" />
<rect x="150" y="180" width="30" height="30" fill="#EEEEEE" />
<rect x="180" y="180" width="30" height="30" fill="#FFFFFF" />
<rect x="210" y="180" width="30" height="30" fill="#FFFFFF" />
<rect x="240" y="180" width="30" height="30" fill="#FFFFFF" />
<rect x="270" y="180" width="30" height="30" fill="#FFFFFF" />
<rect x="300" y="180" width="30" height="30" fill="#FFFFFF" />
<rect x="330" y="180" width="30" height="30" fill="#EEEEEE" />
<rect x="360" y="180" width="30" height="30" fill="#000000" />
<rect x="390" y="180" width="30" height="30" fill="#FFFFFF" />
<rect x="420" y="180" width="30" height="30" fill="#FFFFFF" />
<rect x="450" y="180" width="30" height="30" fill="#000000" />
<rect x="480" y="180" width="30" height="30" fill="#000000" />
<rect x="0" y="210" width="30" height="30" fill="#000000" />
<rect x="30" y="210" width="30" height="30" fill="#FFFFFF" />
<rect x="60" y="210" width="30" height="30" fill="#FFFFFF" />
<rect x="90" y="210" width="30" height="30" fill="#EEEEEE" />
<rect x="120" y="210" width="30" height="30" fill="#000000" />
<rect x="150" y="210" width="30" height="30" fill="#EEEEEE" />
<rect x="180" y="210" width="30" height="30" fill="#EEEEEE" />
<rect x="210" y="210" width="30" height="30" fill="#EEEEEE" />
<rect x="240" y="210" width="30" height="30" fill="#EEEEEE" />
<rect x="270" y="210" width="30" height="30" fill="#EEEEEE" />
<rect x="300" y="210" width="30" height="30" fill="#EEEEEE" />
<rect x="330" y="210" width="30" height="30" fill="#EEEEEE" />
<rect x="360" y="210" width="30" height="30" fill="#000000" />
<rect x="390" y="210" width="30" height="30" fill="#EEEEEE" />
<rect x="420" y="210" width="30" height="30" fill="#FFFFFF" />
<rect x="450" y="210" width="30" height="30" fill="#FFFFFF" />
<rect x="480" y="210" width="30" height="30" fill="#000000" />
<rect x="0" y="240" width="30" height="30" fill="#000000" />
<rect x="30" y="240" width="30" height="30" fill="#FFFFFF" />
<rect x="60" y="240" width="30" height="30" fill="#000000" />
<rect x="90" y="240" width="30" height="30" fill="#000000" />
<rect x="120" y="240" width="30" height="30" fill="#000000" />
<rect x="150" y="240" width="30" height="30" fill="#000000" />
<rect x="180" y="240" width="30" height="30" fill="#000000" />
<rect x="210" y="240" width="30" height="30" fill="#000000" />
<rect x="240" y="240" width="30" height="30" fill="#000000" />
<rect x="270" y="240" width="30" height="30" fill="#000000" />
<rect x="300" y="240" width="30" height="30" fill="#000000" />
<rect x="330" y="240" width="30" height="30" fill="#000000" />
<rect x="360" y="240" width="30" height="30" fill="#000000" />
<rect x="390" y="240" width="30" height="30" fill="#000000" />
<rect x="420" y="240" width="30" height="30" fill="#000000" />
<rect x="450" y="240" width="30" height="30" fill="#FFFFFF" />
<rect x="480" y="240" width="30" height="30" fill="#000000" />
<rect x="0" y="270" width="30" height="30" fill="#000000" />
<rect x="30" y="270" width="30" height="30" fill="#000000" />
<rect x="60" y="270" width="30" height="30" fill="#FFFFFF" />
<rect x="90" y="270" width="30" height="30" fill="#FFFFFF" />
<rect x="120" y="270" width="30" height="30" fill="#FFFFFF" />
<rect x="150" y="270" width="30" height="30" fill="#FFFFFF" />
<rect x="180" y="270" width="30" height="30" fill="#FFFFFF" />
<rect x="210" y="270" width="30" height="30" fill="#FFFFFF" />
<rect x="240" y="270" width="30" height="30" fill="#FFFFFF" />
<rect x="270" y="270" width="30" height="30" fill="#FFFFFF" />
<rect x="300" y="270" width="30" height="30" fill="#FFFFFF" />
<rect x="330" y="270" width="30" height="30" fill="#FFFFFF" />
<rect x="360" y="270" width="30" height="30" fill="#FFFFFF" />
<rect x="390" y="270" width="30" height="30" fill="#FFFFFF" />
<rect x="420" y="270" width="30" height="30" fill="#FFFFFF" />
<rect x="450" y="270" width="30" height="30" fill="#000000" />
<rect x="480" y="270" width="30" height="30" fill="#000000" />
<rect x="0" y="300" width="30" height="30" fill="#000000" />
<rect x="30" y="300" width="30" height="30" fill="#FFFFFF" />
<rect x="60" y="300" width="30" height="30" fill="#EEEEEE" />
<rect x="90" y="300" width="30" height="30" fill="#EEEEEE" />
<rect x="120" y="300" width="30" height="30" fill="#EEEEEE" />
<rect x="150" y="300" width="30" height="30" fill="#EEEEEE" />
<rect x="180" y="300" width="30" height="30" fill="#EEEEEE" />
<rect x="210" y="300" width="30" height="30" fill="#EEEEEE" />
<rect x="240" y="300" width="30" height="30" fill="#EEEEEE" />
<rect x="270" y="300" width="30" height="30" fill="#EEEEEE" />
<rect x="300" y="300" width="30" height="30" fill="#EEEEEE" />
<rect x="330" y="300" width="30" height="30" fill="#EEEEEE" />
<rect x="360" y="300" width="30" height="30" fill="#EEEEEE" />
<rect x="390" y="300" width="30" height="30" fill="#EEEEEE" />
<rect x="420" y="300" width="30" height="30" fill="#EEEEEE" />
<rect x="450" y="300" width="30" height="30" fill="#FFFFFF" />
<rect x="480" y="300" width="30" height="30" fill="#000000" />
<rect x="0" y="330" width="30" height="30" fill="#000000" />
<rect x="30" y="330" width="30" height="30" fill="#EEEEEE" />
<rect x="60" y="330" width="30" height="30" fill="#000000" />
<rect x="90" y="330" width="30" height="30" fill="#000000" />
<rect x="120" y="330" width="30" height="30" fill="#000000" />
<rect x="150" y="330" width="30" height="30" fill="#000000" />
<rect x="180" y="330" width="30" height="30" fill="#000000" />
<rect x="210" y="330" width="30" height="30" fill="#000000" />
<rect x="240" y="330" width="30" height="30" fill="#000000" />
<rect x="270" y="330" width="30" height="30" fill="#000000" />
<rect x="300" y="330" width="30" height="30" fill="#000000" />
<rect x="330" y="330" width="30" height="30" fill="#000000" />
<rect x="360" y="330" width="30" height="30" fill="#000000" />
<rect x="390" y="330" width="30" height="30" fill="#000000" />
<rect x="420" y="330" width="30" height="30" fill="#000000" />
<rect x="450" y="330" width="30" height="30" fill="#EEEEEE" />
<rect x="480" y="330" width="30" height="30" fill="#000000" />
<rect x="0" y="360" width="30" height="30" fill="#000000" />
<rect x="30" y="360" width="30" height="30" fill="#000000" />
<rect x="60" y="360" width="30" height="30" fill="#EEEEEE" />
<rect x="90" y="360" width="30" height="30" fill="#EEEEEE" />
<rect x="120" y="360" width="30" height="30" fill="#EEEEEE" />
<rect x="150" y="360" width="30" height="30" fill="#EEEEEE" />
<rect x="180" y="360" width="30" height="30" fill="#EEEEEE" />
<rect x="210" y="360" width="30" height="30" fill="#EEEEEE" />
<rect x="240" y="360" width="30" height="30" fill="#EEEEEE" />
<rect x="270" y="360" width="30" height="30" fill="#EEEEEE" />
<rect x="300" y="360" width="30" height="30" fill="#EEEEEE" />
<rect x="330" y="360" width="30" height="30" fill="#EEEEEE" />
<rect x="360" y="360" width="30" height="30" fill="#EEEEEE" />
<rect x="390" y="360" width="30" height="30" fill="#EEEEEE" />
<rect x="420" y="360" width="30" height="30" fill="#EEEEEE" />
<rect x="450" y="360" width="30" height="30" fill="#000000" />
<rect x="480" y="360" width="30" height="30" fill="#000000" />
<rect x="0" y="390" width="30" height="30" fill="#000000" />
<rect x="30" y="390" width="30" height="30" fill="#EEEEEE" />
<rect x="60" y="390" width="30" height="30" fill="#EEEEEE" />
<rect x="90" y="390" width="30" height="30" fill="#FFFFFF" />
<rect x="120" y="390" width="30" height="30" fill="#FFFFFF" />
<rect x="150" y="390" width="30" height="30" fill="#FFFFFF" />
<rect x="180" y="390" width="30" height="30" fill="#FFFFFF" />
<rect x="210" y="390" width="30" height="30" fill="#FFFFFF" />
<rect x="240" y="390" width="30" height="30" fill="#FFFFFF" />
<rect x="270" y="390" width="30" height="30" fill="#FFFFFF" />
<rect x="300" y="390" width="30" height="30" fill="#FFFFFF" />
<rect x="330" y="390" width="30" height="30" fill="#FFFFFF" />
<rect x="360" y="390" width="30" height="30" fill="#FFFFFF" />
<rect x="390" y="390" width="30" height="30" fill="#FFFFFF" />
<rect x="420" y="390" width="30" height="30" fill="#EEEEEE" />
<rect x="450" y="390" width="30" height="30" fill="#EEEEEE" />
<rect x="480" y="390" width="30" height="30" fill="#000000" />
<rect x="0" y="420" width="30" height="30" fill="#000000" />
<rect x="30" y="420" width="30" height="30" fill="#EEEEEE" />
<rect x="60" y="420" width="30" height="30" fill="#FFFFFF" />
<rect x="90" y="420" width="30" height="30" fill="#FFFFFF" />
<rect x="120" y="420" width="30" height="30" fill="#FFFFFF" />
<rect x="150" y="420" width="30" height="30" fill="#FFFFFF" />
<rect x="180" y="420" width="30" height="30" fill="#FFFFFF" />
<rect x="210" y="420" width="30" height="30" fill="#FFFFFF" />
<rect x="240" y="420" width="30" height="30" fill="#FFFFFF" />
<rect x="270" y="420" width="30" height="30" fill="#FFFFFF" />
<rect x="300" y="420" width="30" height="30" fill="#FFFFFF" />
<rect x="330" y="420" width="30" height="30" fill="#FFFFFF" />
<rect x="360" y="420" width="30" height="30" fill="#FFFFFF" />
<rect x="390" y="420" width="30" height="30" fill="#FFFFFF" />
<rect x="420" y="420" width="30" height="30" fill="#FFFFFF" />
<rect x="450" y="420" width="30" height="30" fill="#EEEEEE" />
<rect x="480" y="420" width="30" height="30" fill="#000000" />
<rect x="0" y="450" width="30" height="30" fill="#000000" />
<rect x="30" y="450" width="30" height="30" fill="#EEEEEE" />
<rect x="60" y="450" width="30" height="30" fill="#FFFFFF" />
<rect x="90" y="450" width="30" height="30" fill="#EEEEEE" />
<rect x="120" y="450" width="30" height="30" fill="#EEEEEE" />
<rect x="150" y="450" width="30" height="30" fill="#FFFFFF" />
<rect x="180" y="450" width="30" height="30" fill="#EEEEEE" />
<rect x="210" y="450" width="30" height="30" fill="#FFFFFF" />
<rect x="240" y="450" width="30" height="30" fill="#FFFFFF" />
<rect x="270" y="450" width="30" height="30" fill="#FFFFFF" />
<rect x="300" y="450" width="30" height="30" fill="#FFFFFF" />
<rect x="330" y="450" width="30" height="30" fill="#FFFFFF" />
<rect x="360" y="450" width="30" height="30" fill="#EEEEEE" />
<rect x="390" y="450" width="30" height="30" fill="#EEEEEE" />
<rect x="420" y="450" width="30" height="30" fill="#FFFFFF" />
<rect x="450" y="450" width="30" height="30" fill="#EEEEEE" />
<rect x="480" y="450" width="30" height="30" fill="#000000" />
<rect x="0" y="480" width="30" height="30" fill="#000000" />
<rect x="30" y="480" width="30" height="30" fill="#EEEEEE" />
<rect x="60" y="480" width="30" height="30" fill="#EEEEEE" />
<rect x="90" y="480" width="30" height="30" fill="#FFFFFF" />
<rect x="120" y="480" width="30" height="30" fill="#FFFFFF" />
<rect x="150" y="480" width="30" height="30" fill="#FFFFFF" />
<rect x="180" y="480" width="30" height="30" fill="#FFFFFF" />
<rect x="210" y="480" width="30" height="30" fill="#FFFFFF" />
<rect x="240" y="480" width="30" height="30" fill="#FFFFFF" />
<rect x="270" y="480" width="30" height="30" fill="#FFFFFF" />
<rect x="300" y="480" width="30" height="30" fill="#FFFFFF" />
<rect x="330" y="480" width="30" height="30" fill="#FFFFFF" />
<rect x="360" y="480" width="30" height="30" fill="#FFFFFF" />
<rect x="390" y="480" width="30" height="30" fill="#FFFFFF" />
<rect x="420" y="480" width="30" height="30" fill="#EEEEEE" />
<rect x="450" y="480" width="30" height="30" fill="#EEEEEE" />
<rect x="480" y="480" width="30" height="30" fill="#000000" />
<rect x="0" y="510" width="30" height="30" fill="#000000" />
<rect x="30" y="510" width="30" height="30" fill="#EEEEEE" />
<rect x="60" y="510" width="30" height="30" fill="#FFFFFF" />
<rect x="90" y="510" width="30" height="30" fill="#FFFFFF" />
<rect x="120" y="510" width="30" height="30" fill="#FFFFFF" />
<rect x="150" y="510" width="30" height="30" fill="#FFFFFF" />
<rect x="180" y="510" width="30" height="30" fill="#FFFFFF" />
<rect x="210" y="510" width="30" height="30" fill="#FFFFFF" />
<rect x="240" y="510" width="30" height="30" fill="#FFFFFF" />
<rect x="270" y="510" width="30" height="30" fill="#FFFFFF" />
<rect x="300" y="510" width="30" height="30" fill="#FFFFFF" />
<rect x="330" y="510" width="30" height="30" fill="#FFFFFF" />
<rect x="360" y="510" width="30" height="30" fill="#FFFFFF" />
<rect x="390" y="510" width="30" height="30" fill="#FFFFFF" />
<rect x="420" y="510" width="30" height="30" fill="#FFFFFF" />
<rect x="450" y="510" width="30" height="30" fill="#EEEEEE" />
<rect x="480" y="510" width="30" height="30" fill="#000000" />
<rect x="0" y="540" width="30" height="30" fill="#000000" />
<rect x="30" y="540" width="30" height="30" fill="#EEEEEE" />
<rect x="60" y="540" width="30" height="30" fill="#FFFFFF" />
<rect x="90" y="540" width="30" height="30" fill="#EEEEEE" />
<rect x="120" y="540" width="30" height="30" fill="#EEEEEE" />
<rect x="150" y="540" width="30" height="30" fill="#FFFFFF" />
<rect x="180" y="540" width="30" height="30" fill="#FFFFFF" />
<rect x="210" y="540" width="30" height="30" fill="#FFFFFF" />
<rect x="240" y="540" width="30" height="30" fill="#FFFFFF" />
<rect x="270" y="540" width="30" height="30" fill="#FFFFFF" />
<rect x="300" y="540" width="30" height="30" fill="#EEEEEE" />
<rect x="330" y="540" width="30" height="30" fill="#FFFFFF" />
<rect x="360" y="540" width="30" height="30" fill="#EEEEEE" />
<rect x="390" y="540" width="30" height="30" fill="#EEEEEE" />
<rect x="420" y="540" width="30" height="30" fill="#FFFFFF" />
<rect x="450" y="540" width="30" height="30" fill="#EEEEEE" />
<rect x="480" y="540" width="30" height="30" fill="#000000" />
<rect x="0" y="570" width="30" height="30" fill="#000000" />
<rect x="30" y="570" width="30" height="30" fill="#EEEEEE" />
<rect x="60" y="570" width="30" height="30" fill="#EEEEEE" />
<rect x="90" y="570" width="30" height="30" fill="#FFFFFF" />
<rect x="120" y="570" width="30" height="30" fill="#FFFFFF" />
<rect x="150" y="570" width="30" height="30" fill="#FFFFFF" />
<rect x="180" y="570" width="30" height="30" fill="#FFFFFF" />
<rect x="210" y="570" width="30" height="30" fill="#FFFFFF" />
<rect x="240" y="570" width="30" height="30" fill="#FFFFFF" />
<rect x="270" y="570" width="30" height="30" fill="#FFFFFF" />
<rect x="300" y="570" width="30" height="30" fill="#FFFFFF" />
<rect x="330" y="570" width="30" height="30" fill="#FFFFFF" />
<rect x="360" y="570" width="30" height="30" fill="#FFFFFF" />
<rect x="390" y="570" width="30" height="30" fill="#FFFFFF" />
<rect x="420" y="570" width="30" height="30" fill="#EEEEEE" />
<rect x="450" y="570" width="30" height="30" fill="#EEEEEE" />
<rect x="480" y="570" width="30" height="30" fill="#000000" />
<rect x="0" y="600" width="30" height="30" fill="#000000" />
<rect x="30" y="600" width="30" height="30" fill="#EEEEEE" />
<rect x="60" y="600" width="30" height="30" fill="#FFFFFF" />
<rect x="90" y="600" width="30" height="30" fill="#FFFFFF" />
<rect x="120" y="600" width="30" height="30" fill="#FFFFFF" />
<rect x="150" y="600" width="30" height="30" fill="#FFFFFF" />
<rect x="180" y="600" width="30" height="30" fill="#FFFFFF" />
<rect x="210" y="600" width="30" height="30" fill="#FFFFFF" />
<rect x="240" y="600" width="30" height="30" fill="#FFFFFF" />
<rect x="270" y="600" width="30" height="30" fill="#FFFFFF" />
<rect x="300" y="600" width="30" height="30" fill="#FFFFFF" />
<rect x="330" y="600" width="30" height="30" fill="#FFFFFF" />
<rect x="360" y="600" width="30" height="30" fill="#FFFFFF" />
<rect x="390" y="600" width="30" height="30" fill="#FFFFFF" />
<rect x="420" y="600" width="30" height="30" fill="#FFFFFF" />
<rect x="450" y="600" width="30" height="30" fill="#EEEEEE" />
<rect x="480" y="600" width="30" height="30" fill="#000000" />
<rect x="0" y="630" width="30" height="30" fill="#000000" />
<rect x="30" y="630" width="30" height="30" fill="#E0E0E0" />
<rect x="60" y="630" width="30" height="30" fill="#EEEEEE" />
<rect x="90" y="630" width="30" height="30" fill="#FFFFFF" />
<rect x="120" y="630" width="30" height="30" fill="#FFFFFF" />
<rect x="150" y="630" width="30" height="30" fill="#FFFFFF" />
<rect x="180" y="630" width="30" height="30" fill="#FFFFFF" />
<rect x="210" y="630" width="30" height="30" fill="#FFFFFF" />
<rect x="240" y="630" width="30" height="30" fill="#FFFFFF" />
<rect x="270" y="630" width="30" height="30" fill="#FFFFFF" />
<rect x="300" y="630" width="30" height="30" fill="#FFFFFF" />
<rect x="330" y="630" width="30" height="30" fill="#FFFFFF" />
<rect x="360" y="630" width="30" height="30" fill="#FFFFFF" />
<rect x="390" y="630" width="30" height="30" fill="#FFFFFF" />
<rect x="420" y="630" width="30" height="30" fill="#EEEEEE" />
<rect x="450" y="630" width="30" height="30" fill="#E0E0E0" />
<rect x="480" y="630" width="30" height="30" fill="#000000" />
<rect x="0" y="660" width="30" height="30" fill="#000000" />
<rect x="30" y="660" width="30" height="30" fill="#E0E0E0" />
<rect x="60" y="660" width="30" height="30" fill="#EEEEEE" />
<rect x="90" y="660" width="30" height="30" fill="#E0E0E0" />
<rect x="120" y="660" width="30" height="30" fill="#EEEEEE" />
<rect x="150" y="660" width="30" height="30" fill="#EEEEEE" />
<rect x="180" y="660" width="30" height="30" fill="#E0E0E0" />
<rect x="210" y="660" width="30" height="30" fill="#EEEEEE" />
<rect x="240" y="660" width="30" height="30" fill="#EEEEEE" />
<rect x="270" y="660" width="30" height="30" fill="#EEEEEE" />
<rect x="300" y="660" width="30" height="30" fill="#E0E0E0" />
<rect x="330" y="660" width="30" height="30" fill="#EEEEEE" />
<rect x="360" y="660" width="30" height="30" fill="#EEEEEE" />
<rect x="390" y="660" width="30" height="30" fill="#E0E0E0" />
<rect x="420" y="660" width="30" height="30" fill="#EEEEEE" />
<rect x="450" y="660" width="30" height="30" fill="#E0E0E0" />
<rect x="480" y="660" width="30" height="30" fill="#000000" />
<rect x="0" y="690" width="30" height="30" fill="#000000" />
<rect x="30" y="690" width="30" height="30" fill="#E0E0E0" />
<rect x="60" y="690" width="30" height="30" fill="#EEEEEE" />
<rect x="90" y="690" width="30" height="30" fill="#E0E0E0" />
<rect x="120" y="690" width="30" height="30" fill="#EEEEEE" />
<rect x="150" y="690" width="30" height="30" fill="#EEEEEE" />
<rect x="180" y="690" width="30" height="30" fill="#E0E0E0" />
<rect x="210" y="690" width="30" height="30" fill="#EEEEEE" />
<rect x="240" y="690" width="30" height="30" fill="#EEEEEE" />
<rect x="270" y="690" width="30" height="30" fill="#EEEEEE" />
<rect x="300" y="690" width="30" height="30" fill="#E0E0E0" />
<rect x="330" y="690" width="30" height="30" fill="#EEEEEE" />
<rect x="360" y="690" width="30" height="30" fill="#EEEEEE" />
<rect x="390" y="690" width="30" height="30" fill="#E0E0E0" />
<rect x="420" y="690" width="30" height="30" fill="#EEEEEE" />
<rect x="450" y="690" width="30" height="30" fill="#E0E0E0" />
<rect x="480" y="690" width="30" height="30" fill="#000000" />
<rect x="0" y="720" width="30" height="30" fill="#000000" />
<rect x="30" y="720" width="30" height="30" fill="#E0E0E0" />
<rect x="60" y="720" width="30" height="30" fill="#EEEEEE" />
<rect x="90" y="720" width="30" height="30" fill="#E0E0E0" />
<rect x="120" y="720" width="30" height="30" fill="#EEEEEE" />
<rect x="150" y="720" width="30" height="30" fill="#EEEEEE" />
<rect x="180" y="720" width="30" height="30" fill="#E0E0E0" />
<rect x="210" y="720" width="30" height="30" fill="#EEEEEE" />
<rect x="240" y="720" width="30" height="30" fill="#EEEEEE" />
<rect x="270" y="720" width="30" height="30" fill="#EEEEEE" />
<rect x="300" y="720" width="30" height="30" fill="#E0E0E0" />
<rect x="330" y="720" width="30" height="30" fill="#EEEEEE" />
<rect x="360" y="720" width="30" height="30" fill="#EEEEEE" />
<rect x="390" y="720" width="30" height="30" fill="#E0E0E0" />
<rect x="420" y="720" width="30" height="30" fill="#EEEEEE" />
<rect x="450" y="720" width="30" height="30" fill="#E0E0E0" />
<rect x="480" y="720" width="30" height="30" fill="#000000" />
<rect x="0" y="750" width="30" height="30" fill="#000000" />
<rect x="30" y="750" width="30" height="30" fill="#000000" />
<rect x="60" y="750" width="30" height="30" fill="#EEEEEE" />
<rect x="90" y="750" width="30" height="30" fill="#E0E0E0" />
<rect x="120" y="750" width="30" height="30" fill="#EEEEEE" />
<rect x="150" y="750" width="30" height="30" fill="#EEEEEE" />
<rect x="180" y="750" width="30" height="30" fill="#E0E0E0" />
<rect x="210" y="750" width="30" height="30" fill="#EEEEEE" />
<rect x="240" y="750" width="30" height="30" fill="#EEEEEE" />
<rect x="270" y="750" width="30" height="30" fill="#EEEEEE" />
<rect x="300" y="750" width="30" height="30" fill="#E0E0E0" />
<rect x="330" y="750" width="30" height="30" fill="#EEEEEE" />
<rect x="360" y="750" width="30" height="30" fill="#EEEEEE" />
<rect x="390" y="750" width="30" height="30" fill="#E0E0E0" />
<rect x="420" y="750" width="30" height="30" fill="#EEEEEE" />
<rect x="450" y="750" width="30" height="30" fill="#000000" />
<rect x="480" y="750" width="30" height="30" fill="#000000" />
<rect x="0" y="780" width="30" height="30" fill="#000000" />
<rect x="30" y="780" width="30" height="30" fill="#5D4037" />
<rect x="60" y="780" width="30" height="30" fill="#000000" />
<rect x="90" y="780" width="30" height="30" fill="#000000" />
<rect x="120" y="780" width="30" height="30" fill="#000000" />
<rect x="150" y="780" width="30" height="30" fill="#000000" />
<rect x="180" y="780" width="30" height="30" fill="#000000" />
<rect x="210" y="780" width="30" height="30" fill="#000000" />
<rect x="240" y="780" width="30" height="30" fill="#000000" />
<rect x="270" y="780" width="30" height="30" fill="#000000" />
<rect x="300" y="780" width="30" height="30" fill="#000000" />
<rect x="330" y="780" width="30" height="30" fill="#000000" />
<rect x="360" y="780" width="30" height="30" fill="#000000" />
<rect x="390" y="780" width="30" height="30" fill="#000000" />
<rect x="420" y="780" width="30" height="30" fill="#000000" />
<rect x="450" y="780" width="30" height="30" fill="#5D4037" />
<rect x="480" y="780" width="30" height="30" fill="#000000" />
<rect x="0" y="810" width="30" height="30" fill="#000000" />
<rect x="30" y="810" width="30" height="30" fill="#5D4037" />
<rect x="60" y="810" width="30" height="30" fill="#5D4037" />
<rect x="90" y="810" width="30" height="30" fill="#5D4037" />
<rect x="120" y="810" width="30" height="30" fill="#5D4037" />
<rect x="150" y="810" width="30" height="30" fill="#5D4037" />
<rect x="180" y="810" width="30" height="30" fill="#5D4037" />
<rect x="210" y="810" width="30" height="30" fill="#5D4037" />
<rect x="240" y="810" width="30" height="30" fill="#5D4037" />
<rect x="270" y="810" width="30" height="30" fill="#5D4037" />
<rect x="300" y="810" width="30" height="30" fill="#5D4037" />
<rect x="330" y="810" width="30" height="30" fill="#5D4037" />
<rect x="360" y="810" width="30" height="30" fill="#5D4037" />
<rect x="390" y="810" width="30" height="30" fill="#5D4037" />
<rect x="420" y="810" width="30" height="30" fill="#5D4037" />
<rect x="450" y="810" width="30" height="30" fill="#5D4037" />
<rect x="480" y="810" width="30" height="30" fill="#000000" />
<rect x="30" y="840" width="30" height="30" fill="#000000" />
<rect x="60" y="840" width="30" height="30" fill="#000000" />
<rect x="90" y="840" width="30" height="30" fill="#000000" />
<rect x="120" y="840" width="30" height="30" fill="#000000" />
<rect x="150" y="840" width="30" height="30" fill="#000000" />
<rect x="180" y="840" width="30" height="30" fill="#000000" />
<rect x="210" y="840" width="30" height="30" fill="#000000" />
<rect x="240" y="840" width="30" height="30" fill="#000000" />
<rect x="270" y="840" width="30" height="30" fill="#000000" />
<rect x="300" y="840" width="30" height="30" fill="#000000" />
<rect x="330" y="840" width="30" height="30" fill="#000000" />
<rect x="360" y="840" width="30" height="30" fill="#000000" />
<rect x="390" y="840" width="30" height="30" fill="#000000" />
<rect x="420" y="840" width="30" height="30" fill="#000000" />
<rect x="450" y="840" width="30" height="30" fill="#000000" />
</svg>